<?xml version="1.0" encoding="iso-8859-1"?>
<!-- Generator: Adobe Illustrator 18.0.0, SVG Export Plug-In . SVG Version: 6.00 Build 0)  -->
<!DOCTYPE svg PUBLIC "-//W3C//DTD SVG 1.1//EN" "http://www.w3.org/Graphics/SVG/1.1/DTD/svg11.dtd">
<svg version="1.1" id="Capa_1" xmlns="http://www.w3.org/2000/svg" xmlns:xlink="http://www.w3.org/1999/xlink" x="0px" y="0px"
	 viewBox="0 0 446 446" style="enable-background:new 0 0 446 446;" xml:space="preserve">
<path d="M380.685,65.315C338.566,23.196,282.565,0,223,0S107.434,23.196,65.315,65.315C23.196,107.434,0,163.435,0,223
	s23.196,115.566,65.315,157.685C107.434,422.804,163.435,446,223,446s115.566-23.196,157.685-65.315
	C422.804,338.566,446,282.565,446,223S422.804,107.434,380.685,65.315z M303.938,164.175l-39.346,38.843
	c2.91,6.046,4.541,12.823,4.541,19.982c0,25.478-20.654,46.133-46.133,46.133c-25.478,0-46.133-20.654-46.133-46.133
	c0-20.225,13.021-37.398,31.133-43.625V84c0-8.284,6.716-15,15-15c8.284,0,15,6.716,15,15v95.375
	c1.895,0.651,3.734,1.419,5.508,2.301l39.354-38.851c5.895-5.819,15.392-5.76,21.213,0.137
	C309.895,148.857,309.833,158.355,303.938,164.175z"/>
<g>
</g>
<g>
</g>
<g>
</g>
<g>
</g>
<g>
</g>
<g>
</g>
<g>
</g>
<g>
</g>
<g>
</g>
<g>
</g>
<g>
</g>
<g>
</g>
<g>
</g>
<g>
</g>
<g>
</g>
</svg>
